<svg version="1.2" xmlns="http://www.w3.org/2000/svg" viewBox="0 0 20 20" width="20" height="20">
	<title>image</title>
	<defs>
		<clipPath clipPathUnits="userSpaceOnUse" id="cp1">
			<path d="m0 0h20v20h-20z"/>
		</clipPath>
	</defs>
	<style>
		.s0 { fill: #4a4a4a } 
	</style>
	<g id="Clip-Path" clip-path="url(#cp1)">
		<g id="Layer">
			<path id="Layer" class="s0" d="m5 0.6q0-0.2-0.2-0.4-0.2-0.2-0.4-0.2-0.3 0-0.5 0.2-0.1 0.2-0.1 0.4v0.7h-1.3c-0.7 0-1.3 0.2-1.8 0.7-0.4 0.5-0.7 1.1-0.7 1.8v1.2h20v-1.3c0-0.6-0.3-1.2-0.7-1.7-0.5-0.5-1.1-0.7-1.8-0.7h-1.3l0.1-0.7q-0.1-0.2-0.2-0.4-0.2-0.2-0.5-0.2-0.2 0-0.4 0.2-0.2 0.2-0.2 0.4v0.7h-10zm6.8 12.1c0.7 0 1.4-0.6 1.4-1.4 0-1.1-0.6-1.6-1.4-1.6-0.7 0-1.5 0.5-1.5 1.5 0 1.1 0.7 1.5 1.5 1.5z"/>
			<path id="Layer" fill-rule="evenodd" class="s0" d="m19.3 19.3c-0.5 0.4-1.1 0.7-1.8 0.7h-15c-0.7 0-1.3-0.3-1.8-0.7-0.4-0.5-0.7-1.1-0.7-1.8v-11.3l20 0.1v11.2c0 0.7-0.3 1.3-0.7 1.8zm-7.6-3.3c1.5 0 2.5-1.3 2.5-3.6 0-2.4-1-3.3-2.5-3.3-1.1 0-2.2 0.8-2.2 2.2 0 1.5 1 2.2 2.1 2.2 0.9 0 1.5-0.4 1.7-1 0 1.7-0.5 2.8-1.6 2.8-0.8 0-1.3-0.6-1.3-1.1h-0.9c0.1 0.8 0.8 1.8 2.2 1.8zm-4.4-6.8q-0.9 0.4-1.7 1v0.9c0.5-0.3 1.2-0.8 1.6-1v5.8h0.9v-6.7z"/>
		</g>
	</g>
</svg>